<svg xmlns="http://www.w3.org/2000/svg" width="128" height="128" viewBox="0 0 128 128" fill="none">
<defs>
<linearGradient id="Lomegahextechno0p" x1="12%" y1="0%" x2="88%" y2="100%"><stop offset="0" stop-color="#B79BF2" stop-opacity="1"/><stop offset="0.35" stop-color="#7B5CD6" stop-opacity="1"/><stop offset="0.72" stop-color="#3E2A85" stop-opacity="1"/><stop offset="1" stop-color="#3E2A85" stop-opacity="1"/></linearGradient>
<linearGradient id="Lomegahextechno0i" x1="0%" y1="0%" x2="60%" y2="100%"><stop offset="0" stop-color="#7B5CD6" stop-opacity="1"/><stop offset="0.55" stop-color="#3E2A85" stop-opacity="1"/><stop offset="1" stop-color="#3E2A85" stop-opacity="1"/></linearGradient>
<linearGradient id="Lomegahextechno0g" x1="0%" y1="0%" x2="70%" y2="100%"><stop offset="0" stop-color="#FFFFFF" stop-opacity="0.55"/><stop offset="0.45" stop-color="#FFFFFF" stop-opacity="0.1"/><stop offset="1" stop-color="#FFFFFF" stop-opacity="0"/></linearGradient>
<radialGradient id="Lomegahextechno0c" cx="35%" cy="25%" r="80%"><stop offset="0" stop-color="#B79BF2" stop-opacity="1"/><stop offset="1" stop-color="#7B5CD6" stop-opacity="1"/></radialGradient>
</defs>
<path d="M64 8 L112 34 V94 L64 120 L16 94 V34 Z" fill="url(#Lomegahextechno0p)"/>
<g transform="translate(64,64) scale(.86) translate(-64,-64)"><path d="M64 8 L112 34 V94 L64 120 L16 94 V34 Z" fill="url(#Lomegahextechno0i)" opacity=".55"/></g>
<g transform="translate(64,64) scale(.74) translate(-64,-64)"><path d="M64 8 L112 34 V94 L64 120 L16 94 V34 Z" fill="url(#Lomegahextechno0c)"/></g>
<path d="M75.34 50.77 71.42 54.63Q72.71 55.13 73.53 55.95Q74.36 56.78 74.76 58.10Q75.16 59.42 75.16 61.50V70.64Q75.16 72.42 74.76 73.43Q74.36 74.44 73.69 74.84Q73.01 75.24 72.15 75.24Q71.29 75.24 70.56 74.90Q69.82 74.56 69.42 73.55Q69.03 72.54 69.03 70.64V63.22H62.28V70.64Q62.28 72.54 61.85 73.55Q61.42 74.56 60.72 74.90Q60.01 75.24 59.09 75.24Q58.23 75.24 57.56 74.84Q56.88 74.44 56.52 73.43Q56.15 72.42 56.15 70.64V61.50Q56.15 59.42 56.52 58.10Q56.88 56.78 57.65 55.95Q58.42 55.13 59.71 54.63L55.84 50.77Q52.65 52.00 50.88 54.85Q49.10 57.70 49.10 62.05V69.96Q49.10 74.07 50.29 76.77Q51.49 79.47 53.63 80.85Q55.78 82.23 58.72 82.23Q60.13 82.23 61.39 81.86Q62.65 81.49 63.72 80.76Q64.79 80.02 65.65 78.98Q66.39 80.02 67.46 80.76Q68.54 81.49 69.82 81.86Q71.11 82.23 72.46 82.23Q77.00 82.23 79.45 79.16Q81.90 76.10 81.90 69.96V62.05Q81.90 57.70 80.25 54.88Q78.59 52.06 75.34 50.77Z" fill="#3E2A85" fill-opacity=".3"/><path d="M73.84 48.27 69.92 52.13Q71.21 52.63 72.03 53.45Q72.86 54.28 73.26 55.60Q73.66 56.92 73.66 59.00V68.14Q73.66 69.92 73.26 70.93Q72.86 71.94 72.19 72.34Q71.51 72.74 70.65 72.74Q69.79 72.74 69.06 72.40Q68.32 72.06 67.92 71.05Q67.53 70.04 67.53 68.14V60.72H60.78V68.14Q60.78 70.04 60.35 71.05Q59.92 72.06 59.22 72.40Q58.51 72.74 57.59 72.74Q56.73 72.74 56.06 72.34Q55.38 71.94 55.02 70.93Q54.65 69.92 54.65 68.14V59.00Q54.65 56.92 55.02 55.60Q55.38 54.28 56.15 53.45Q56.92 52.63 58.21 52.13L54.34 48.27Q51.15 49.50 49.38 52.35Q47.60 55.20 47.60 59.55V67.46Q47.60 71.57 48.79 74.27Q49.99 76.97 52.13 78.35Q54.28 79.73 57.22 79.73Q58.63 79.73 59.89 79.36Q61.15 78.99 62.22 78.26Q63.29 77.52 64.15 76.48Q64.89 77.52 65.96 78.26Q67.04 78.99 68.32 79.36Q69.61 79.73 70.96 79.73Q75.50 79.73 77.95 76.66Q80.40 73.60 80.40 67.46V59.55Q80.40 55.20 78.75 52.38Q77.09 49.56 73.84 48.27Z" fill="#FFFFFF"/>
<path d="M64 8 L112 34 V94 L64 120 L16 94 V34 Z" fill="url(#Lomegahextechno0g)"/>
<path d="M64 8 L112 34 V94 L64 120 L16 94 V34 Z" fill="none" stroke="#3E2A85" stroke-opacity=".45" stroke-width="2.5" stroke-linejoin="round"/>
</svg>
