<svg xmlns="http://www.w3.org/2000/svg" width="128" height="128" viewBox="0 0 128 128" fill="none">
<defs>
<linearGradient id="Lomegahexantiqua0p" x1="12%" y1="0%" x2="88%" y2="100%"><stop offset="0" stop-color="#B79BF2" stop-opacity="1"/><stop offset="0.35" stop-color="#7B5CD6" stop-opacity="1"/><stop offset="0.72" stop-color="#3E2A85" stop-opacity="1"/><stop offset="1" stop-color="#3E2A85" stop-opacity="1"/></linearGradient>
<linearGradient id="Lomegahexantiqua0i" x1="0%" y1="0%" x2="60%" y2="100%"><stop offset="0" stop-color="#7B5CD6" stop-opacity="1"/><stop offset="0.55" stop-color="#3E2A85" stop-opacity="1"/><stop offset="1" stop-color="#3E2A85" stop-opacity="1"/></linearGradient>
<linearGradient id="Lomegahexantiqua0g" x1="0%" y1="0%" x2="70%" y2="100%"><stop offset="0" stop-color="#FFFFFF" stop-opacity="0.55"/><stop offset="0.45" stop-color="#FFFFFF" stop-opacity="0.1"/><stop offset="1" stop-color="#FFFFFF" stop-opacity="0"/></linearGradient>
<radialGradient id="Lomegahexantiqua0c" cx="35%" cy="25%" r="80%"><stop offset="0" stop-color="#B79BF2" stop-opacity="1"/><stop offset="1" stop-color="#7B5CD6" stop-opacity="1"/></radialGradient>
</defs>
<path d="M64 8 L112 34 V94 L64 120 L16 94 V34 Z" fill="url(#Lomegahexantiqua0p)"/>
<g transform="translate(64,64) scale(.86) translate(-64,-64)"><path d="M64 8 L112 34 V94 L64 120 L16 94 V34 Z" fill="url(#Lomegahexantiqua0i)" opacity=".55"/></g>
<g transform="translate(64,64) scale(.74) translate(-64,-64)"><path d="M64 8 L112 34 V94 L64 120 L16 94 V34 Z" fill="url(#Lomegahexantiqua0c)"/></g>
<path d="M57.09 79.89Q55.18 79.89 53.75 78.82Q52.32 77.74 51.31 76.04Q50.29 74.34 49.76 72.34Q49.22 70.35 49.22 68.50Q49.22 65.16 50.23 62.38Q51.25 59.61 52.74 57.55Q54.23 55.50 55.54 54.36Q56.85 53.23 57.39 53.23Q58.40 53.23 59.27 54.04Q60.13 54.84 60.70 55.79Q61.27 56.75 61.27 57.29Q61.27 57.46 60.73 58.09Q60.19 58.72 59.36 59.55Q58.52 60.39 57.63 61.22Q56.38 62.30 55.21 63.91Q54.05 65.52 53.33 67.42Q52.62 69.33 52.62 71.36Q52.62 72.31 52.92 73.03Q53.21 73.75 53.81 74.13Q54.41 74.52 55.18 74.52Q57.21 74.52 58.85 73.60Q60.49 72.67 61.47 71.36Q62.46 70.05 62.46 68.80Q62.46 67.54 62.04 66.47Q61.62 65.40 61.62 64.32Q61.62 63.19 62.82 62.12Q64.01 61.04 65.86 61.04Q67.11 61.04 68.27 62.00Q69.44 62.95 69.44 64.62Q69.44 65.87 68.87 67.81Q68.30 69.75 67.53 71.24Q67.53 71.48 67.62 71.81Q67.71 72.14 67.77 72.43Q68.06 73.33 68.57 73.87Q69.08 74.40 70.15 74.40Q72.00 74.40 73.10 73.06Q74.21 71.72 74.68 69.54Q75.16 67.36 75.16 65.04Q75.16 62.83 74.54 61.04Q73.91 59.25 73.04 57.91Q72.18 56.57 71.55 55.79Q70.93 55.02 70.93 54.84Q70.93 54.12 71.85 53.62Q72.78 53.11 73.31 53.11Q75.04 53.11 76.59 54.30Q78.14 55.50 79.31 57.43Q80.47 59.37 81.13 61.73Q81.78 64.08 81.78 66.47Q81.78 69.75 80.53 72.85Q79.28 75.95 76.92 77.92Q74.57 79.89 71.11 79.89Q69.67 79.89 68.48 78.85Q67.29 77.80 66.57 76.58Q65.86 75.36 65.62 74.76Q65.32 74.04 64.84 74.76Q64.37 75.36 63.38 76.61Q62.40 77.86 60.85 78.88Q59.30 79.89 57.09 79.89Z" fill="#3E2A85" fill-opacity=".3"/><path d="M55.59 77.39Q53.68 77.39 52.25 76.32Q50.82 75.24 49.81 73.54Q48.79 71.84 48.26 69.84Q47.72 67.85 47.72 66.00Q47.72 62.66 48.73 59.88Q49.75 57.11 51.24 55.05Q52.73 53.00 54.04 51.86Q55.35 50.73 55.89 50.73Q56.90 50.73 57.77 51.54Q58.63 52.34 59.20 53.29Q59.77 54.25 59.77 54.79Q59.77 54.96 59.23 55.59Q58.69 56.22 57.86 57.05Q57.02 57.89 56.13 58.72Q54.88 59.80 53.71 61.41Q52.55 63.02 51.83 64.92Q51.12 66.83 51.12 68.86Q51.12 69.81 51.42 70.53Q51.71 71.25 52.31 71.63Q52.91 72.02 53.68 72.02Q55.71 72.02 57.35 71.10Q58.99 70.17 59.97 68.86Q60.96 67.55 60.96 66.30Q60.96 65.04 60.54 63.97Q60.12 62.90 60.12 61.82Q60.12 60.69 61.32 59.62Q62.51 58.54 64.36 58.54Q65.61 58.54 66.77 59.50Q67.94 60.45 67.94 62.12Q67.94 63.37 67.37 65.31Q66.80 67.25 66.03 68.74Q66.03 68.98 66.12 69.31Q66.21 69.64 66.27 69.93Q66.56 70.83 67.07 71.37Q67.58 71.90 68.65 71.90Q70.50 71.90 71.60 70.56Q72.71 69.22 73.18 67.04Q73.66 64.86 73.66 62.54Q73.66 60.33 73.04 58.54Q72.41 56.75 71.54 55.41Q70.68 54.07 70.05 53.29Q69.43 52.52 69.43 52.34Q69.43 51.62 70.35 51.12Q71.28 50.61 71.81 50.61Q73.54 50.61 75.09 51.80Q76.64 53.00 77.81 54.93Q78.97 56.87 79.63 59.23Q80.28 61.58 80.28 63.97Q80.28 67.25 79.03 70.35Q77.78 73.45 75.42 75.42Q73.07 77.39 69.61 77.39Q68.17 77.39 66.98 76.35Q65.79 75.30 65.07 74.08Q64.36 72.86 64.12 72.26Q63.82 71.54 63.34 72.26Q62.87 72.86 61.88 74.11Q60.90 75.36 59.35 76.38Q57.80 77.39 55.59 77.39Z" fill="#FFFFFF"/>
<path d="M64 8 L112 34 V94 L64 120 L16 94 V34 Z" fill="url(#Lomegahexantiqua0g)"/>
<path d="M64 8 L112 34 V94 L64 120 L16 94 V34 Z" fill="none" stroke="#3E2A85" stroke-opacity=".45" stroke-width="2.5" stroke-linejoin="round"/>
</svg>
