<svg xmlns="http://www.w3.org/2000/svg" viewBox="0 0 128 128" fill="none">
<defs>
<radialGradient id="infbg" cx=".35" cy=".28" r=".85"><stop offset="0" stop-color="#7FD8FF"/><stop offset=".5" stop-color="#1E7FD0"/><stop offset="1" stop-color="#0A2E66"/></radialGradient><radialGradient id="infglow" cx=".5" cy=".5" r=".6"><stop offset="0" stop-color="#9BE0FFE6"/><stop offset="1" stop-color="#9BE0FF00"/></radialGradient><linearGradient id="infface" x1="0" y1="0" x2="1" y2="1"><stop offset="0" stop-color="#FFFFFF"/><stop offset="0.45" stop-color="#E3F6FF"/><stop offset="1" stop-color="#6FC2F5"/></linearGradient><linearGradient id="infside" x1="0" y1="0" x2="1" y2="0"><stop offset="0" stop-color="#0D4C8F"/><stop offset="1" stop-color="#2378C8"/></linearGradient>
<clipPath id="infclip"><circle cx="64" cy="64" r="60"/></clipPath>
<linearGradient id="infgloss" x1="0" y1="0" x2="0" y2="1"><stop offset="0" stop-color="#fff" stop-opacity=".42"/><stop offset="1" stop-color="#fff" stop-opacity="0"/></linearGradient>
<radialGradient id="infvig" cx=".5" cy=".5" r=".5"><stop offset=".7" stop-color="#000" stop-opacity="0"/><stop offset="1" stop-color="#000" stop-opacity=".28"/></radialGradient>
</defs>
<circle cx="64" cy="64" r="60" fill="url(#infbg)"/>
<g clip-path="url(#infclip)"><circle cx="64" cy="66" r="44" fill="url(#infglow)"/><g fill="none" stroke="#fff" stroke-opacity=".3" stroke-width="1"><circle cx="64" cy="66" r="30"/><circle cx="64" cy="66" r="38" stroke-dasharray="2 5"/></g><ellipse cx="64" cy="70" rx="50" ry="15" fill="none" stroke="#C7D7FF" stroke-opacity=".6" stroke-width="1.4" transform="rotate(-14 64 70)"/><g transform="translate(4.00 7.20)"><path d="M64 66 C73 52 95 50 95 66 C95 82 73 80 64 66 C55 52 33 50 33 66 C33 82 55 80 64 66 Z" fill="none" stroke="url(#infside)" stroke-width="12" stroke-linejoin="round"/></g><g transform="translate(3.50 6.30)"><path d="M64 66 C73 52 95 50 95 66 C95 82 73 80 64 66 C55 52 33 50 33 66 C33 82 55 80 64 66 Z" fill="none" stroke="url(#infside)" stroke-width="12" stroke-linejoin="round"/></g><g transform="translate(3.00 5.40)"><path d="M64 66 C73 52 95 50 95 66 C95 82 73 80 64 66 C55 52 33 50 33 66 C33 82 55 80 64 66 Z" fill="none" stroke="url(#infside)" stroke-width="12" stroke-linejoin="round"/></g><g transform="translate(2.50 4.50)"><path d="M64 66 C73 52 95 50 95 66 C95 82 73 80 64 66 C55 52 33 50 33 66 C33 82 55 80 64 66 Z" fill="none" stroke="url(#infside)" stroke-width="12" stroke-linejoin="round"/></g><g transform="translate(2.00 3.60)"><path d="M64 66 C73 52 95 50 95 66 C95 82 73 80 64 66 C55 52 33 50 33 66 C33 82 55 80 64 66 Z" fill="none" stroke="url(#infside)" stroke-width="12" stroke-linejoin="round"/></g><g transform="translate(1.50 2.70)"><path d="M64 66 C73 52 95 50 95 66 C95 82 73 80 64 66 C55 52 33 50 33 66 C33 82 55 80 64 66 Z" fill="none" stroke="url(#infside)" stroke-width="12" stroke-linejoin="round"/></g><g transform="translate(1.00 1.80)"><path d="M64 66 C73 52 95 50 95 66 C95 82 73 80 64 66 C55 52 33 50 33 66 C33 82 55 80 64 66 Z" fill="none" stroke="url(#infside)" stroke-width="12" stroke-linejoin="round"/></g><g transform="translate(0.50 0.90)"><path d="M64 66 C73 52 95 50 95 66 C95 82 73 80 64 66 C55 52 33 50 33 66 C33 82 55 80 64 66 Z" fill="none" stroke="url(#infside)" stroke-width="12" stroke-linejoin="round"/></g><path d="M64 66 C73 52 95 50 95 66 C95 82 73 80 64 66 C55 52 33 50 33 66 C33 82 55 80 64 66 Z" fill="none" stroke="url(#infface)" stroke-width="12" stroke-linejoin="round"/><path d="M38 58 C43 53 52 54 58 60" fill="none" stroke="#fff" stroke-width="1.8" stroke-linecap="round" opacity=".9"/><g fill="#fff"><path d="M26 34 L28 40 L34 42 L28 44 L26 50 L24 44 L18 42 L24 40 Z" opacity=".85"/><path d="M98 98 L99.4 102 L103 103 L99.4 104.4 L98 108 L96.6 104.4 L93 103 L96.6 102 Z" opacity=".7"/></g><circle cx="64" cy="64" r="60" fill="url(#infvig)"/></g>
<path d="M22 46 C30 22 52 10 74 12 C58 18 40 30 30 50 Z" fill="url(#infgloss)"/>
<circle cx="64" cy="64" r="59.2" fill="none" stroke="#fff" stroke-opacity=".55" stroke-width="1.6"/>
<circle cx="64" cy="64" r="61" fill="none" stroke="#000" stroke-opacity=".18" stroke-width="1.2"/>
</svg>