<svg xmlns="http://www.w3.org/2000/svg" width="128" height="128" viewBox="0 0 128 128" fill="none">
<defs>
<radialGradient id="aspiralb" cx="34%" cy="26%" r="82%"><stop offset="0" stop-color="#FFD98A" stop-opacity="1"/><stop offset="0.52" stop-color="#D8A02E" stop-opacity="1"/><stop offset="1" stop-color="#6E4A05" stop-opacity="1"/></radialGradient>
<radialGradient id="aspirals" cx="50%" cy="50%" r="50%"><stop offset="0.62" stop-color="#6E4A05" stop-opacity="0"/><stop offset="0.88" stop-color="#6E4A05" stop-opacity="0.18"/><stop offset="1" stop-color="#6E4A05" stop-opacity="0.42"/></radialGradient>
<radialGradient id="aspiralg" cx="50%" cy="50%" r="50%"><stop offset="0" stop-color="#FFFFFF" stop-opacity="0.62"/><stop offset="0.55" stop-color="#FFFFFF" stop-opacity="0.2"/><stop offset="1" stop-color="#FFFFFF" stop-opacity="0"/></radialGradient>
<linearGradient id="aspiralr" x1="0%" y1="0%" x2="0%" y2="100%"><stop offset="0" stop-color="#FFFFFF" stop-opacity="0.9"/><stop offset="0.45" stop-color="#FFFFFF" stop-opacity="0.25"/><stop offset="1" stop-color="#FFFFFF" stop-opacity="0"/></linearGradient>
</defs>
<circle cx="64" cy="64" r="60" fill="url(#aspiralb)"/>
<g><rect x="71.0" y="75.3" width="17.3" height="17.3" fill="none" stroke="#FFFFFF" stroke-opacity=".16" stroke-width="1.6"/><rect x="65.7" y="75.3" width="28.0" height="28.0" fill="none" stroke="#FFFFFF" stroke-opacity=".16" stroke-width="1.6"/><rect x="48.3" y="66.7" width="45.3" height="45.3" fill="none" stroke="#FFFFFF" stroke-opacity=".16" stroke-width="1.6"/><rect x="34.3" y="38.7" width="73.3" height="73.3" fill="none" stroke="#FFFFFF" stroke-opacity=".16" stroke-width="1.6"/><rect x="34.3" y="16.0" width="118.7" height="118.7" fill="none" stroke="#FFFFFF" stroke-opacity=".16" stroke-width="1.6"/><path d="M79.7 86.0 A3.3 3.3 0 0 1 76.4 89.3" fill="none" stroke="#FFFFFF" stroke-opacity=".96" stroke-width="2.2" stroke-linecap="round"/><path d="M76.4 89.3 A5.3 5.3 0 0 1 71.0 84.0" fill="none" stroke="#FFFFFF" stroke-opacity=".96" stroke-width="3.1" stroke-linecap="round"/><path d="M71.0 84.0 A8.7 8.7 0 0 1 79.7 75.3" fill="none" stroke="#FFFFFF" stroke-opacity=".96" stroke-width="3.9" stroke-linecap="round"/><path d="M79.7 75.3 A14.0 14.0 0 0 1 93.7 89.3" fill="none" stroke="#FFFFFF" stroke-opacity=".96" stroke-width="4.8" stroke-linecap="round"/><path d="M93.7 89.3 A22.7 22.7 0 0 1 71.0 112.0" fill="none" stroke="#FFFFFF" stroke-opacity=".96" stroke-width="5.6" stroke-linecap="round"/><path d="M71.0 112.0 A36.7 36.7 0 0 1 34.3 75.3" fill="none" stroke="#FFFFFF" stroke-opacity=".96" stroke-width="6.5" stroke-linecap="round"/><path d="M34.3 75.3 A59.3 59.3 0 0 1 93.7 16.0" fill="none" stroke="#FFFFFF" stroke-opacity=".96" stroke-width="7.0" stroke-linecap="round"/></g>
<circle cx="64" cy="64" r="60" fill="url(#aspirals)"/>
<ellipse cx="60" cy="33" rx="40" ry="23" fill="url(#aspiralg)"/>
<circle cx="64" cy="64" r="59" stroke="url(#aspiralr)" stroke-width="2" opacity="0.75"/>
<circle cx="64" cy="64" r="62.5" stroke="#6E4A05" stroke-opacity="0.14" stroke-width="3"/>
</svg>
