<svg xmlns="http://www.w3.org/2000/svg" viewBox="0 0 128 128" fill="none"><defs><linearGradient id="roalpha0rim" x1="0" y1="0" x2="1" y2="1"><stop offset="0" stop-color="#FFCC86"/><stop offset=".45" stop-color="#EE8320"/><stop offset="1" stop-color="#7E3F04"/></linearGradient><radialGradient id="roalpha0face" cx=".5" cy=".42" r=".62"><stop offset="0" stop-color="#F49D44"/><stop offset=".7" stop-color="#EE8320"/><stop offset="1" stop-color="#7E3F04"/></radialGradient><radialGradient id="roalpha0med" cx=".38" cy=".32" r=".8"><stop offset="0" stop-color="#FFF1DE"/><stop offset=".6" stop-color="#FFCC86"/><stop offset="1" stop-color="#EE8320"/></radialGradient><linearGradient id="roalpha0shine" x1="0" y1="0" x2=".7" y2="1"><stop offset="0" stop-color="#fff" stop-opacity=".5"/><stop offset=".5" stop-color="#fff" stop-opacity="0"/></linearGradient><clipPath id="roalpha0clip"><circle cx="64" cy="64" r="51"/></clipPath></defs><circle cx="64" cy="66.5" r="61" fill="#000" opacity=".18"/><circle cx="64" cy="64" r="61" fill="url(#roalpha0rim)"/><circle cx="64" cy="64" r="58.5" fill="none" stroke="#fff" stroke-opacity=".55" stroke-width="1.2"/><circle cx="64.0" cy="7.5" r="1.7" fill="#FFF1DE"/><circle cx="104.0" cy="24.0" r="1.7" fill="#FFF1DE"/><circle cx="120.5" cy="64.0" r="1.7" fill="#FFF1DE"/><circle cx="104.0" cy="104.0" r="1.7" fill="#FFF1DE"/><circle cx="64.0" cy="120.5" r="1.7" fill="#FFF1DE"/><circle cx="24.0" cy="104.0" r="1.7" fill="#FFF1DE"/><circle cx="7.5" cy="64.0" r="1.7" fill="#FFF1DE"/><circle cx="24.0" cy="24.0" r="1.7" fill="#FFF1DE"/><circle cx="64" cy="64" r="53" fill="#7E3F04"/><circle cx="64" cy="64" r="51" fill="url(#roalpha0face)"/><g clip-path="url(#roalpha0clip)"><ellipse cx="64" cy="64" rx="48" ry="13" fill="none" stroke="#FFF1DE" stroke-opacity=".28" stroke-width=".7" transform="rotate(11.25 64 64)"/><ellipse cx="64" cy="64" rx="48" ry="13" fill="none" stroke="#FFF1DE" stroke-opacity=".28" stroke-width=".7" transform="rotate(33.75 64 64)"/><ellipse cx="64" cy="64" rx="48" ry="13" fill="none" stroke="#FFF1DE" stroke-opacity=".28" stroke-width=".7" transform="rotate(56.25 64 64)"/><ellipse cx="64" cy="64" rx="48" ry="13" fill="none" stroke="#FFF1DE" stroke-opacity=".28" stroke-width=".7" transform="rotate(78.75 64 64)"/><ellipse cx="64" cy="64" rx="48" ry="13" fill="none" stroke="#FFF1DE" stroke-opacity=".28" stroke-width=".7" transform="rotate(101.25 64 64)"/><ellipse cx="64" cy="64" rx="48" ry="13" fill="none" stroke="#FFF1DE" stroke-opacity=".28" stroke-width=".7" transform="rotate(123.75 64 64)"/><ellipse cx="64" cy="64" rx="48" ry="13" fill="none" stroke="#FFF1DE" stroke-opacity=".28" stroke-width=".7" transform="rotate(146.25 64 64)"/><ellipse cx="64" cy="64" rx="48" ry="13" fill="none" stroke="#FFF1DE" stroke-opacity=".28" stroke-width=".7" transform="rotate(168.75 64 64)"/><ellipse cx="64" cy="64" rx="50" ry="25" fill="none" stroke="#FFF1DE" stroke-opacity=".85" stroke-width="1.3" transform="rotate(0.00 64 64)"/><ellipse cx="64" cy="64" rx="50" ry="25" fill="none" stroke="#FFF1DE" stroke-opacity=".85" stroke-width="1.3" transform="rotate(22.50 64 64)"/><ellipse cx="64" cy="64" rx="50" ry="25" fill="none" stroke="#FFF1DE" stroke-opacity=".85" stroke-width="1.3" transform="rotate(45.00 64 64)"/><ellipse cx="64" cy="64" rx="50" ry="25" fill="none" stroke="#FFF1DE" stroke-opacity=".85" stroke-width="1.3" transform="rotate(67.50 64 64)"/><ellipse cx="64" cy="64" rx="50" ry="25" fill="none" stroke="#FFF1DE" stroke-opacity=".85" stroke-width="1.3" transform="rotate(90.00 64 64)"/><ellipse cx="64" cy="64" rx="50" ry="25" fill="none" stroke="#FFF1DE" stroke-opacity=".85" stroke-width="1.3" transform="rotate(112.50 64 64)"/><ellipse cx="64" cy="64" rx="50" ry="25" fill="none" stroke="#FFF1DE" stroke-opacity=".85" stroke-width="1.3" transform="rotate(135.00 64 64)"/><ellipse cx="64" cy="64" rx="50" ry="25" fill="none" stroke="#FFF1DE" stroke-opacity=".85" stroke-width="1.3" transform="rotate(157.50 64 64)"/><path d="M0 0 H128 L0 100 Z" fill="url(#roalpha0shine)"/></g><circle cx="64" cy="64" r="28" fill="url(#roalpha0rim)"/><circle cx="64" cy="64" r="24.5" fill="url(#roalpha0med)"/><g transform="translate(0 1.6)"><path d="M13.00 0.00 L89.00 0.00 Q102.00 0.00 102.00 13.00 L102.00 96.80 Q102.00 100.00 98.80 100.00 L85.20 100.00 Q82.00 100.00 82.00 96.80 L82.00 83.20 Q82.00 80.00 78.80 80.00 L23.20 80.00 Q20.00 80.00 20.00 83.20 L20.00 96.80 Q20.00 100.00 16.80 100.00 L3.20 100.00 Q0.00 100.00 0.00 96.80 L0.00 13.00 Q0.00 0.00 13.00 0.00 Z M20.00 23.00 L20.00 57.00 Q20.00 61.00 24.00 61.00 L78.00 61.00 Q82.00 61.00 82.00 57.00 L82.00 23.00 Q82.00 19.00 78.00 19.00 L24.00 19.00 Q20.00 19.00 20.00 23.00 Z" fill="#7E3F04" fill-rule="evenodd" transform="translate(51.76 52.00) scale(0.2400)" /></g><path d="M13.00 0.00 L89.00 0.00 Q102.00 0.00 102.00 13.00 L102.00 96.80 Q102.00 100.00 98.80 100.00 L85.20 100.00 Q82.00 100.00 82.00 96.80 L82.00 83.20 Q82.00 80.00 78.80 80.00 L23.20 80.00 Q20.00 80.00 20.00 83.20 L20.00 96.80 Q20.00 100.00 16.80 100.00 L3.20 100.00 Q0.00 100.00 0.00 96.80 L0.00 13.00 Q0.00 0.00 13.00 0.00 Z M20.00 23.00 L20.00 57.00 Q20.00 61.00 24.00 61.00 L78.00 61.00 Q82.00 61.00 82.00 57.00 L82.00 23.00 Q82.00 19.00 78.00 19.00 L24.00 19.00 Q20.00 19.00 20.00 23.00 Z" fill="#fff" fill-rule="evenodd" transform="translate(51.76 52.00) scale(0.2400)" /></svg>