<svg xmlns="http://www.w3.org/2000/svg" width="128" height="128" viewBox="0 0 128 128" fill="none">
<defs>
<linearGradient id="Lalphapentagonlogo0p" x1="12%" y1="0%" x2="88%" y2="100%"><stop offset="0" stop-color="#FFB765" stop-opacity="1"/><stop offset="0.35" stop-color="#F58A1E" stop-opacity="1"/><stop offset="0.72" stop-color="#8A4A06" stop-opacity="1"/><stop offset="1" stop-color="#8A4A06" stop-opacity="1"/></linearGradient>
<linearGradient id="Lalphapentagonlogo0i" x1="0%" y1="0%" x2="60%" y2="100%"><stop offset="0" stop-color="#F58A1E" stop-opacity="1"/><stop offset="0.55" stop-color="#8A4A06" stop-opacity="1"/><stop offset="1" stop-color="#8A4A06" stop-opacity="1"/></linearGradient>
<linearGradient id="Lalphapentagonlogo0g" x1="0%" y1="0%" x2="70%" y2="100%"><stop offset="0" stop-color="#FFFFFF" stop-opacity="0.55"/><stop offset="0.45" stop-color="#FFFFFF" stop-opacity="0.1"/><stop offset="1" stop-color="#FFFFFF" stop-opacity="0"/></linearGradient>
<radialGradient id="Lalphapentagonlogo0c" cx="35%" cy="25%" r="80%"><stop offset="0" stop-color="#FFB765" stop-opacity="1"/><stop offset="1" stop-color="#F58A1E" stop-opacity="1"/></radialGradient>
</defs>
<path d="M64 8 L118 47 L97 116 H31 L10 47 Z" fill="url(#Lalphapentagonlogo0p)"/>
<g transform="translate(64,64) scale(.86) translate(-64,-64)"><path d="M64 8 L118 47 L97 116 H31 L10 47 Z" fill="url(#Lalphapentagonlogo0i)" opacity=".55"/></g>
<g transform="translate(64,64) scale(.74) translate(-64,-64)"><path d="M64 8 L118 47 L97 116 H31 L10 47 Z" fill="url(#Lalphapentagonlogo0c)"/></g>
<defs><linearGradient id="gLalphapentagonlogo0logo" x1="0%" y1="0%" x2="100%" y2="100%"><stop offset="0" stop-color="#FFFFFF"/><stop offset="1" stop-color="#FFB765"/></linearGradient></defs><g transform="translate(64.00 64.00) scale(0.5822) translate(-60.00 -77.00)"><path d="M80 44 L50 44 L20 77 L50 110 L80 110 M80 40 V110 L100 114" fill="none" stroke-linecap="butt" stroke-linejoin="miter" stroke-miterlimit="2" stroke="#8A4A06" stroke-opacity=".34" stroke-width="23.67" transform="translate(4.12 5.36)"/><path d="M80 44 L50 44 L20 77 L50 110 L80 110 M80 40 V110 L100 114" fill="none" stroke-linecap="butt" stroke-linejoin="miter" stroke-miterlimit="2" stroke="url(#gLalphapentagonlogo0logo)" stroke-width="22.33"/></g>
<path d="M64 8 L118 47 L97 116 H31 L10 47 Z" fill="url(#Lalphapentagonlogo0g)"/>
<path d="M64 8 L118 47 L97 116 H31 L10 47 Z" fill="none" stroke="#8A4A06" stroke-opacity=".45" stroke-width="2.5" stroke-linejoin="round"/>
</svg>
