<svg xmlns="http://www.w3.org/2000/svg" width="128" height="128" viewBox="0 0 128 128" fill="none">
<defs>
<linearGradient id="Lsigmacrownlogo0p" x1="12%" y1="0%" x2="88%" y2="100%"><stop offset="0" stop-color="#FFD34E" stop-opacity="1"/><stop offset="0.35" stop-color="#D8A21C" stop-opacity="1"/><stop offset="0.72" stop-color="#7A5A05" stop-opacity="1"/><stop offset="1" stop-color="#7A5A05" stop-opacity="1"/></linearGradient>
<linearGradient id="Lsigmacrownlogo0i" x1="0%" y1="0%" x2="60%" y2="100%"><stop offset="0" stop-color="#D8A21C" stop-opacity="1"/><stop offset="0.55" stop-color="#7A5A05" stop-opacity="1"/><stop offset="1" stop-color="#7A5A05" stop-opacity="1"/></linearGradient>
<linearGradient id="Lsigmacrownlogo0g" x1="0%" y1="0%" x2="70%" y2="100%"><stop offset="0" stop-color="#FFFFFF" stop-opacity="0.55"/><stop offset="0.45" stop-color="#FFFFFF" stop-opacity="0.1"/><stop offset="1" stop-color="#FFFFFF" stop-opacity="0"/></linearGradient>
<radialGradient id="Lsigmacrownlogo0c" cx="35%" cy="25%" r="80%"><stop offset="0" stop-color="#FFD34E" stop-opacity="1"/><stop offset="1" stop-color="#D8A21C" stop-opacity="1"/></radialGradient>
</defs>
<path d="M14 30 L34 54 L48 16 L64 44 L80 16 L94 54 L114 30 L106 102 C106 111 99 118 90 118 H38 C29 118 22 111 22 102 Z" fill="url(#Lsigmacrownlogo0p)"/>
<g transform="translate(64,64) scale(.86) translate(-64,-64)"><path d="M14 30 L34 54 L48 16 L64 44 L80 16 L94 54 L114 30 L106 102 C106 111 99 118 90 118 H38 C29 118 22 111 22 102 Z" fill="url(#Lsigmacrownlogo0i)" opacity=".55"/></g>
<g transform="translate(64,64) scale(.74) translate(-64,-64)"><path d="M14 30 L34 54 L48 16 L64 44 L80 16 L94 54 L114 30 L106 102 C106 111 99 118 90 118 H38 C29 118 22 111 22 102 Z" fill="url(#Lsigmacrownlogo0c)"/></g>
<defs><linearGradient id="gLsigmacrownlogo0logo" x1="0%" y1="0%" x2="100%" y2="100%"><stop offset="0" stop-color="#FFFFFF"/><stop offset="1" stop-color="#FFD34E"/></linearGradient></defs><g transform="translate(64.00 82.00) scale(0.5100) translate(-68.00 -64.00)"><path d="M98 26 H34 L66 64 L34 102 H102" fill="none" stroke-linecap="butt" stroke-linejoin="miter" stroke-miterlimit="2" stroke="#7A5A05" stroke-opacity=".34" stroke-width="27.02" transform="translate(4.71 6.12)"/><path d="M98 26 H34 L66 64 L34 102 H102" fill="none" stroke-linecap="butt" stroke-linejoin="miter" stroke-miterlimit="2" stroke="url(#gLsigmacrownlogo0logo)" stroke-width="25.49"/></g>
<path d="M14 30 L34 54 L48 16 L64 44 L80 16 L94 54 L114 30 L106 102 C106 111 99 118 90 118 H38 C29 118 22 111 22 102 Z" fill="url(#Lsigmacrownlogo0g)"/>
<path d="M14 30 L34 54 L48 16 L64 44 L80 16 L94 54 L114 30 L106 102 C106 111 99 118 90 118 H38 C29 118 22 111 22 102 Z" fill="none" stroke="#7A5A05" stroke-opacity=".45" stroke-width="2.5" stroke-linejoin="round"/>
</svg>
