<svg xmlns="http://www.w3.org/2000/svg" width="128" height="128" viewBox="0 0 128 128" fill="none">
<defs>
<radialGradient id="apib" cx="34%" cy="26%" r="82%"><stop offset="0" stop-color="#6EDCA9" stop-opacity="1"/><stop offset="0.52" stop-color="#0E9A64" stop-opacity="1"/><stop offset="1" stop-color="#065138" stop-opacity="1"/></radialGradient>
<radialGradient id="apis" cx="50%" cy="50%" r="50%"><stop offset="0.62" stop-color="#065138" stop-opacity="0"/><stop offset="0.88" stop-color="#065138" stop-opacity="0.18"/><stop offset="1" stop-color="#065138" stop-opacity="0.42"/></radialGradient>
<radialGradient id="apig" cx="50%" cy="50%" r="50%"><stop offset="0" stop-color="#FFFFFF" stop-opacity="0.62"/><stop offset="0.55" stop-color="#FFFFFF" stop-opacity="0.2"/><stop offset="1" stop-color="#FFFFFF" stop-opacity="0"/></radialGradient>
<linearGradient id="apir" x1="0%" y1="0%" x2="0%" y2="100%"><stop offset="0" stop-color="#FFFFFF" stop-opacity="0.9"/><stop offset="0.45" stop-color="#FFFFFF" stop-opacity="0.25"/><stop offset="1" stop-color="#FFFFFF" stop-opacity="0"/></linearGradient>
</defs>
<g transform="translate(64,64) scale(1) translate(-64,-64)">
<circle cx="64" cy="64" r="60" fill="url(#apib)"/>
<g><path d="M39.85 47.19H88.15V55.94H81.45V73.10Q81.45 77.51 82.29 78.59Q83.12 79.66 85.04 79.66Q86.99 79.66 88.08 79.53V85.95Q85.96 86.81 78.71 86.81Q76.42 86.81 74.20 86.16Q70.65 85.10 69.66 81.99Q69.21 80.52 69.21 77.51V55.94H58.79V85.47H46.55V55.94H39.85Z" fill="#FFFFFF" fill-opacity="0.2"/><path d="M39.85 44.19H88.15V52.94H81.45V70.10Q81.45 74.51 82.29 75.59Q83.12 76.66 85.04 76.66Q86.99 76.66 88.08 76.53V82.95Q85.96 83.81 78.71 83.81Q76.42 83.81 74.20 83.16Q70.65 82.10 69.66 78.99Q69.21 77.52 69.21 74.51V52.94H58.79V82.47H46.55V52.94H39.85Z" fill="#FFFFFF" fill-opacity="0.97"/></g>
<circle cx="64" cy="64" r="60" fill="url(#apis)"/>
<ellipse cx="60" cy="33" rx="40" ry="23" fill="url(#apig)"/>
<circle cx="64" cy="64" r="59" stroke="url(#apir)" stroke-width="2" opacity="0.75"/>
<circle cx="64" cy="64" r="62.5" stroke="#065138" stroke-opacity="0.14" stroke-width="3"/>
</g>
</svg>
